<?xml version="1.0" encoding="utf-8"?>
<!-- Generator: Adobe Illustrator 16.0.0, SVG Export Plug-In . SVG Version: 6.00 Build 0)  -->
<!DOCTYPE svg PUBLIC "-//W3C//DTD SVG 1.1//EN" "http://www.w3.org/Graphics/SVG/1.1/DTD/svg11.dtd">
<svg version="1.1" id="Layer_1" xmlns="http://www.w3.org/2000/svg" xmlns:xlink="http://www.w3.org/1999/xlink" x="0px" y="0px"
	 width="1024px" height="288px" viewBox="0 0 1024 288" enable-background="new 0 0 1024 288" xml:space="preserve">
<g>
	<g>
		<path fill-rule="evenodd" clip-rule="evenodd" d="M1.064,288.982c0-68.991,0-137.982,0-206.974
			c3.487,0.027,7.127-0.592,10.435,0.191c15.144,3.587,30.168,7.044,46.014,5.855c8.865-0.664,17.869,0.801,26.805,0.729
			c6.285-0.051,12.069,1.082,17.575,4.018c3.12,1.664,6.24,2.145,9.8,0.826c7.441-2.758,14.888-5.721,22.584-7.522
			c13.006-3.044,26.249-4.696,39.7-4.208c3.923,0.143,7.9-0.326,11.81-0.842c6.651-0.875,13.269-2.865,19.897-2.852
			c12.401,0.024,24.8,1.653,37.199,1.643c9.02-0.008,18.036-1.607,27.058-2.447c14.307-1.332,28.702-2.072,42.447-6.888
			c8.531-2.987,17.112-5.831,25.619-8.884c2.078-0.746,3.87-2.75,5.932-2.989c6.029-0.698,12.136-0.69,18.197-1.159
			c7.045-0.544,14.103-1.099,21.097-2.066c2.646-0.366,5.075-2.08,7.699-2.854c4.301-1.267,8.702-2.194,13.02-3.41
			c2.473-0.696,5.047-1.356,7.254-2.603c5.071-2.863,9.924-6.11,14.906-9.135c4.246-2.578,8.815-4.71,12.746-7.693
			c3.436-2.607,5.884-6.507,9.295-9.16c6.815-5.299,14.197-9.877,20.921-15.28c2.974-2.389,5.805-3.448,9.454-3.284
			c3.658,0.166,7.395,0.471,10.98-0.061c6.143-0.912,11.267,2.13,15.094,5.466c4.432,3.863,8.883,4.18,14.014,4.833
			c3.906,0.498,7.719,2.499,11.316,4.333c2.113,1.077,3.477,3.794,5.621,4.598c3.059,1.148,5.188,2.235,5.639,5.896
			c0.182,1.473,1.834,3.248,3.279,4c7.527,3.922,15.215,7.532,22.82,11.309c3.168,1.573,6.133,3.637,9.42,4.871
			c8.484,3.188,17.135,5.927,25.643,9.052c9.732,3.575,19.213,7.941,29.113,10.928c11.998,3.615,24.334,6.1,36.498,9.17
			c4.547,1.148,9.023,2.58,13.535,3.863c3.615,1.027,7.211,2.145,10.863,3.014c8.623,2.051,17.725,2.104,25.766,6.638
			c2.344,1.322,5.215,1.886,7.922,2.366c21.773,3.867,43.551,7.732,65.361,11.38c10.082,1.687,20.238,3.993,30.369,4.04
			c13.977,0.064,28.006-1.336,41.932-2.852c15.986-1.74,30.896,4.126,46.398,5.466c8.246,0.712,16.615,0.221,24.922-0.017
			c9.912-0.281,19.85-1.593,29.719-1.157c13.943,0.616,27.844,2.315,41.742,3.769c6.125,0.641,12.191,1.815,18.09,2.717
			c0,58.305,0,115.698,0,173.364C683.178,288.982,342.121,288.982,1.064,288.982z"/>
		<path fill-rule="evenodd" clip-rule="evenodd" fill="#FFFFFF" d="M1.064,288.982c341.057,0,682.114,0,1023.52,0
			c0-57.666,0-115.06,0-173.364c-5.898-0.901-11.965-2.076-18.09-2.717c-13.898-1.453-27.799-3.152-41.742-3.769
			c-9.869-0.436-19.807,0.876-29.719,1.157c-8.307,0.237-16.676,0.729-24.922,0.017c-15.502-1.34-30.412-7.206-46.398-5.466
			c-13.926,1.516-27.955,2.916-41.932,2.852c-10.131-0.047-20.287-2.354-30.369-4.04c-21.811-3.647-43.588-7.513-65.361-11.38
			c-2.707-0.48-5.578-1.044-7.922-2.366c-8.041-4.534-17.143-4.587-25.766-6.638c-3.652-0.869-7.248-1.986-10.863-3.014
			c-4.512-1.283-8.988-2.715-13.535-3.863c-12.164-3.07-24.5-5.555-36.498-9.17c-9.9-2.986-19.381-7.353-29.113-10.928
			c-8.508-3.125-17.158-5.864-25.643-9.052c-3.287-1.234-6.252-3.298-9.42-4.871c-7.605-3.776-15.293-7.387-22.82-11.309
			c-1.445-0.753-3.098-2.528-3.279-4c-0.451-3.662-2.58-4.749-5.639-5.896c-2.145-0.804-3.508-3.521-5.621-4.598
			c-3.598-1.834-7.41-3.836-11.316-4.333c-5.131-0.653-9.583-0.971-14.014-4.833c-3.827-3.335-8.951-6.377-15.094-5.466
			c-3.586,0.532-7.322,0.227-10.98,0.061c-3.649-0.165-6.479,0.895-9.454,3.284c-6.725,5.402-14.106,9.98-20.921,15.28
			c-3.411,2.652-5.859,6.552-9.295,9.16c-3.93,2.983-8.5,5.116-12.746,7.693c-4.981,3.025-9.834,6.272-14.906,9.135
			c-2.207,1.247-4.781,1.907-7.254,2.603c-4.317,1.216-8.718,2.143-13.02,3.41c-2.624,0.773-5.054,2.488-7.699,2.854
			c-6.994,0.968-14.051,1.522-21.097,2.066c-6.062,0.468-12.168,0.46-18.197,1.159c-2.062,0.239-3.854,2.243-5.932,2.989
			c-8.506,3.053-17.088,5.897-25.619,8.884c-13.746,4.815-28.141,5.556-42.447,6.888c-9.022,0.84-18.039,2.439-27.058,2.447
			c-12.399,0.011-24.798-1.618-37.199-1.643c-6.628-0.014-13.246,1.977-19.897,2.852c-3.909,0.516-7.886,0.984-11.81,0.842
			c-13.451-0.488-26.694,1.164-39.7,4.208c-7.697,1.802-15.144,4.765-22.584,7.522c-3.56,1.318-6.68,0.838-9.8-0.826
			c-5.506-2.936-11.291-4.068-17.575-4.018c-8.936,0.072-17.94-1.393-26.805-0.729c-15.846,1.188-30.87-2.269-46.014-5.855
			c-3.308-0.783-6.948-0.164-10.435-0.191c0-26.992,0-53.982,0-80.978C342.612,1.027,684.16,1.027,1025.82,1.027
			c0,96.216,0,192.442,0,288.956c-2.119,0-4.355,0-6.596,0c-337.887,0-675.775,0.001-1013.663-0.041
			C4.063,289.941,2.563,289.315,1.064,288.982z"/>
	</g>
</g>
</svg>
