<?xml version="1.0" encoding="utf-8"?>
<!-- Generator: Adobe Illustrator 16.0.0, SVG Export Plug-In . SVG Version: 6.00 Build 0)  -->
<!DOCTYPE svg PUBLIC "-//W3C//DTD SVG 1.1//EN" "http://www.w3.org/Graphics/SVG/1.1/DTD/svg11.dtd">
<svg version="1.1" id="Layer_1" xmlns="http://www.w3.org/2000/svg" xmlns:xlink="http://www.w3.org/1999/xlink" x="0px" y="0px"
	 width="2560px" height="390px" viewBox="0 0 2560 390" enable-background="new 0 0 2560 390" xml:space="preserve">
		<path fill-rule="evenodd" clip-rule="evenodd" d="M1,247c18.667,0,37.337,0.24,55.998-0.086c12.03-0.211,24.096-0.804,36.05-2.099
			c6.889-0.746,13.531-3.539,20.392-4.851c7.038-1.344,14.181-2.303,21.322-2.902c14.432-1.211,29.307-0.284,43.236-3.523
			c16.761-3.898,33.433-3.072,49.87-1.97c12.385,0.831,24.746,1.261,37.106,1.342c37.498,0.246,75.001,0.365,112.495-0.086
			c10.735-0.129,21.415-2.802,32.172-3.525c14.685-0.988,29.384-5.044,44.158-0.484c1.226,0.379,2.643,0.178,3.971,0.179
			c13.167,0.01,26.356-0.471,39.492,0.157c10.441,0.499,20.836,2.216,31.22,3.626c17.86,2.426,35.676,4.004,53.603,0.384
			c3.526-0.712,7.318-0.021,10.977-0.199c2.93-0.144,5.889-0.404,8.756-0.995c10.795-2.226,21.542-4.69,32.339-6.905
			c10.359-2.125,20.75-4.103,31.145-6.045c6.418-1.199,12.837-2.581,19.32-3.191c5.326-0.502,10.752-0.104,16.125,0.118
			c3.436,0.143,6.85,0.926,10.283,1.007c6.996,0.165,14.026,0.45,20.993-0.031c16.078-1.111,31.133,2.361,46.137,7.93
			c9.356,3.472,19.393,6.047,29.304,6.873c16.179,1.35,32.504,0.969,48.769,1.229c1.417,0.022,2.906-0.448,4.259-0.961
			c8.859-3.357,18.084-3.108,27.327-3.019c11.832,0.115,23.671,0.26,35.498-0.023c20.036-0.479,40.068-1.186,60.094-1.991
			c11.205-0.451,22.389-1.396,33.591-1.935c15.863-0.763,31.739-1.249,47.598-2.09c4.715-0.25,9.456-0.993,14.068-2.032
			c14.897-3.354,29.974-3.937,45.175-4.019c11.037-0.06,22.269-2.86,33.058-1.535c22.076,2.71,44.105,1.36,66.137,1.498
			c17.188,0.107,34.389-1.105,51.575-1.917c3.392-0.16,6.767-1.773,10.108-1.644c5.34,0.207,10.644,1.308,15.962,2.037
			c4.041,0.555,8.071,1.518,12.122,1.602c10.828,0.227,21.672,0.336,32.495,0.001c9.876-0.307,19.732-1.806,29.597-1.804
			c17.585,0.004,34.871,2.909,52.122,6.292c21.881,4.291,43.649,10.121,66.331,7.57c1.435-0.161,3.338-0.079,4.18-0.938
			c4.836-4.932,10.403-2.625,15.768-1.879c8.414,1.17,16.813,2.469,25.193,3.859c5,0.83,3.868-3.409,4.976-6.076
			c1.663,0.129,3.231,0.251,5.438,0.422c-2.792,5.649,1.388,5.572,3.842,6.311c2.977-2.551,5.698-4.883,8.622-7.389
			c7.176,2.158,14.977,3.959,22.319,6.903c4.847,1.943,9.171,5.124,14.716,5.076c0.121-0.001,0.258,1.667,0.358,2.366
			c5.512,0.995,10.956,2.293,16.478,2.9c7.592,0.836,9.367,1.618,10.112-3.074c3.694,0,7.309,0,11.383,0
			c0.123-0.838,0.306-2.07,0.495-3.36c0.712,0.634,1.395,1.772,2.088,1.78c13.558,0.144,27.116,0.218,40.674,0.155
			c4.123-0.02,8.245-0.641,12.367-0.634c0.838,0.002,2.546,1.905,2.369,2.391c-1.133,3.102-0.146,4.24,2.985,4.354
			c0.464,0.017,0.876,1.428,1.472,2.473c2.315-0.173,5.389-0.394,8.459-0.636c0.658-0.052,1.455,0.03,1.941-0.306
			c7.557-5.216,8.997-5.474,14.992,0.347c3.264,3.169,7.001,3.611,10.908,3.921c10.188,0.809,20.396,1.383,30.598,2.029
			c1.162,0.074,2.511,0.399,3.471-0.046c7.545-3.5,14.673,0.433,21.991,0.965c5.19,0.378,10.429,0.082,15.646,0.09
			c4.689,0.007,9.39-0.178,14.066,0.069c10.043,0.528,20.079,1.229,30.11,1.954c17.742,1.281,35.478,2.665,53.221,3.939
			c6.261,0.45,12.533,0.736,18.803,1.043c20.797,1.018,41.594,2.042,62.394,2.987c4.021,0.184,8.07-0.188,12.085,0.063
			c8.203,0.513,16.388,1.32,24.587,1.899c1.904,0.134,3.854-0.376,5.755-0.225c17.207,1.376,34.405,2.869,51.612,4.252
			c9.361,0.753,18.752,1.172,28.098,2.073c15.51,1.497,30.994,3.264,46.491,4.907c0.66,0.069,1.335-0.004,1.997,0.054
			c15.058,1.316,30.138,2.417,45.162,4.037c12.354,1.332,24.642,3.281,36.959,4.959c4.86,0.661,9.721,1.323,14.58,1.99
			c4.356,0.598,6.745-1.964,9.081-5.155c1.339-1.828,2.449-5.952,6.243-2.224c0.693,0.683,2.549,0.334,3.846,0.215
			c1.736-0.16,3.48-0.448,5.161-0.902c0.919-0.249,1.727-0.935,2.56-1.461c0.722-0.456,1.393-1.356,2.113-1.387
			c3.637-0.149,7.317,0.22,10.912-0.197c2.098-0.244,4.064-1.62,5.901-3.052c2.315,0.101,13.755-0.529,17.181-1.849
			c1.142,7.647,6.575,9.178,13.5,8.896c0.211-1.731,0.425-3.482,0.801-6.568c2.122,1.291,3.771,2.37,5.494,3.319
			c1.549,0.854,3.662,2.627,4.688,2.158c4.694-2.146,6.986-0.003,8.582,4.306c1.732-0.616,3.36-0.894,4.649-1.707
			c5.188-3.275,8.103-3.001,12.05,1.123c0.963,1.005,2.734,2.382,3.597,2.075c1.409-0.501,2.442-2.19,3.511-3.479
			c0.767-0.924,1.332-2.013,1.986-3.028c1.072,0.798,2.382,1.412,3.166,2.432c1.828,2.375,2.871,5.846,5.205,7.222
			c3.433,2.022,7.477,2.34,9.726-2.705c1.79-4.017,4.25-5.526,7.188-0.689c0.447,0.735,1.682,1.715,2.239,1.547
			c4.644-1.4,8.514,0.662,12.811,1.853c4.327,1.199,9.245,0.264,14.354,0.264c-0.511-7.187,6.632-4.809,8.298-6.914
			c4.492,1.143,7.947,2.292,11.493,2.767c1.138,0.153,2.427-1.694,3.799-2.245c2.778-1.116,5.606-2.21,8.515-2.877
			c3.979-0.913,8.038-1.515,12.087-2.076c4.693-0.649,9.425-1.023,14.116-1.69c2.47-0.351,5.672,0.685,6.724-3.019
			c0.103-0.361,0.729-0.653,1.172-0.824c1.222-0.472,10.479,3.115,11.377,4.309c0.387,0.515,0.922,1.338,1.368,1.325
			c7.745-0.231,8.463,5.36,9.451,10.986c0.615,3.501,3.369,4.766,6.543,4.083c1.285-0.276,2.092-2.322,3.371-3.183
			c3.444-2.313,6.947-4.568,10.606-6.509c0.938-0.497,3.048-0.224,3.748,0.519c2.791,2.955,5.89,5.912,7.656,9.472
			c2.526,5.095,6.654,4.87,11.026,4.882c0,31.994,0,63.988,0,95.985c-853.333,0.002-1706.667,0.002-2560-0.005
			C1,342.982,1,294.991,1,247z"/>
</svg>
